<svg xmlns="http://www.w3.org/2000/svg" version="1.1" xmlns:xlink="http://www.w3.org/1999/xlink" xmlns:svgjs="http://svgjs.dev/svgjs" width="1500" height="1500" viewBox="0 0 1500 1500"><rect width="1500" height="1500" fill="#7bd37e"></rect><g transform="matrix(0.6666666666666666,0,0,0.6666666666666666,249.50000000000006,249.50000000000006)"><svg viewBox="0 0 280 280" data-background-color="#7bd37e" preserveAspectRatio="xMidYMid meet" height="1500" width="1500" xmlns="http://www.w3.org/2000/svg" xmlns:xlink="http://www.w3.org/1999/xlink"><g id="tight-bounds" transform="matrix(1,0,0,1,0.13999999999998636,0.13999999999998636)"><svg viewBox="0 0 279.72 279.72" height="279.72" width="279.72"><g><svg viewBox="0 0 279.72 279.72" height="279.72" width="279.72"><g><svg viewBox="0 0 279.72 279.72" height="279.72" width="279.72"><g id="textblocktransform"><svg viewBox="0 0 279.72 279.72" height="279.72" width="279.72" id="textblock"><g><svg viewBox="0 0 279.72 279.72" height="279.72" width="279.72"><g transform="matrix(1,0,0,1,108.6589523957108,73.92936372216631)"><svg viewBox="0 0 62.40209520857844 131.8612725556674" height="131.8612725556674" width="62.40209520857844"><g id="icon-0"><svg xmlns="http://www.w3.org/2000/svg" xmlns:xlink="http://www.w3.org/1999/xlink" version="1.1" x="0" y="0" viewBox="28.302 2.595 43.672999999999995 92.28500000000001" enable-background="new 0 0 100 100" xml:space="preserve" height="131.8612725556674" width="62.40209520857844" class="icon-xg-0" data-fill-palette-color="accent" id="xg-0"><g fill="#3d4335" data-fill-palette-color="accent"><g fill="#3d4335" data-fill-palette-color="accent"><path d="M71.975 64.694c0 4.423-0.422 7.499-1.688 9.421-1.055 1.923-3.375 3.461-6.751 4.807s-7.174 2.115-11.394 2.115v1.922 1.923 9.998h-3.164v-9.998-1.923-1.922c-4.431-0.192-8.439-0.962-11.604-2.308-3.587-1.538-5.696-3.46-6.751-5.768-1.267-2.308-1.688-5.96-1.688-10.767v-2.307h15.191v6.152c0 2.884 0.422 4.806 1.266 5.768 0.633 0.769 1.688 1.73 3.587 1.922v-1.922-2.115V58.927 56.62v-2.308c-1.478-0.961-3.376-1.923-5.486-3.076-5.063-2.884-8.438-4.807-10.127-5.96-1.477-1.153-2.742-2.691-3.587-4.614-1.055-2.115-1.477-4.614-1.477-7.883 0-4.614 0.633-8.075 1.898-10.189 1.478-1.923 3.587-3.461 6.752-4.614s7.385-1.923 12.026-1.923V14.13v-1.923V2.595h3.164v9.805 1.923 1.923c3.798 0.192 7.174 0.769 9.917 1.923 3.375 1.153 5.696 2.691 6.54 4.614 0.844 1.153 1.688 4.037 1.688 10.189v0.769h-15.19v-3.076c0-2.884-0.422-4.422-1.266-5.575-0.422-0.385-0.845-0.769-1.688-1.153v2.307 12.882 2.115c8.861 4.422 14.559 7.882 16.668 10.574C70.919 54.312 71.975 58.734 71.975 64.694zM48.978 25.474v-1.923c-1.688 0-2.954 0.77-4.009 1.923-0.844 1.346-1.267 2.884-1.267 4.999 0 2.499 0.423 4.614 1.267 5.96 0.844 0.961 2.109 2.114 4.009 3.269v-2.308-2.499-7.498V25.474zM56.361 66.425c0-4.422-0.844-7.306-2.531-8.844l-1.688-1.346v2.499 12.689 2.115c1.267-0.385 2.321-1.346 2.743-1.923C55.939 70.271 56.361 68.732 56.361 66.425z" fill="#3d4335" data-fill-palette-color="accent"></path></g></g></svg></g></svg></g><g id="text-0"><path d="M0.919 102.633l0.255-0.685 18.368-5.856-9.978-16.673 0.255-0.685 26.633 9.917-0.859 2.305-18.062-6.727c-0.768-0.286-1.987-0.856-3.658-1.709v0c1.392 2.065 2.974 4.563 4.746 7.492 1.763 2.933 3.101 5.329 4.013 7.187v0c-4.806 1.861-8.917 3.38-12.333 4.558v0c-0.624 0.201-1.196 0.368-1.715 0.5-0.517 0.126-1.081 0.234-1.693 0.324v0c-0.076-0.028 0.289 0.05 1.095 0.234v0c0.806 0.184 1.412 0.352 1.818 0.503v0l18.606 6.929-0.858 2.304z" fill="#3d4335" data-fill-palette-color="primary"></path><path d="M50.083 70.944c-1.214 1.518-2.647 2.589-4.298 3.211-1.651 0.623-3.371 0.761-5.158 0.416-1.788-0.345-3.483-1.159-5.087-2.441v0c-1.603-1.282-2.771-2.766-3.503-4.453-0.733-1.687-0.982-3.409-0.749-5.165 0.228-1.76 0.949-3.4 2.163-4.918v0c1.193-1.492 2.623-2.543 4.289-3.153 1.662-0.614 3.391-0.754 5.188-0.419 1.796 0.335 3.496 1.143 5.099 2.425v0c1.603 1.282 2.766 2.762 3.487 4.441 0.722 1.679 0.966 3.396 0.734 5.152-0.233 1.756-0.955 3.391-2.165 4.904zM48.378 69.529c1.417-1.772 1.946-3.682 1.589-5.729-0.354-2.052-1.512-3.863-3.476-5.432v0c-1.302-1.041-2.646-1.712-4.034-2.016-1.384-0.308-2.713-0.235-3.988 0.22-1.27 0.45-2.367 1.252-3.288 2.405v0c-0.939 1.175-1.49 2.434-1.654 3.777-0.159 1.338 0.072 2.659 0.694 3.964 0.622 1.304 1.574 2.468 2.855 3.492v0c1.28 1.024 2.615 1.687 4.002 1.99 1.388 0.303 2.715 0.228 3.98-0.226 1.275-0.455 2.381-1.27 3.32-2.445z" fill="#3d4335" data-fill-palette-color="primary"></path><path d="M56.42 43.46c-1.269-1.682-2.686-2.632-4.251-2.851v0l0.329-2.145c1.472-0.05 2.824 0.47 4.054 1.561v0c-0.056-1.57 0.179-2.94 0.706-4.109 0.521-1.165 1.414-2.225 2.68-3.18v0c1.703-1.285 3.378-1.827 5.023-1.625 1.64 0.205 3.098 1.176 4.373 2.912v0l8.476 11.437-1.898 1.432-8.266-11.024c-1.979-2.623-4.158-3.036-6.537-1.241v0c-1.114 0.84-1.856 1.82-2.225 2.939-0.369 1.119-0.545 2.579-0.526 4.38v0l8.745 11.591-1.963 1.481z" fill="#3d4335" data-fill-palette-color="primary"></path><path d="M86.904 30.351c0.762 1.752 1.864 3.185 3.307 4.301 1.443 1.115 3.414 1.15 5.913 0.105v0c1.081-0.452 2.027-1.009 2.837-1.671 0.804-0.659 1.617-1.531 2.441-2.617v0l1.647 1.173c-0.728 1.104-1.625 2.118-2.693 3.042-1.07 0.917-2.246 1.644-3.528 2.179v0c-2.65 1.108-5.068 1.12-7.253 0.036-2.188-1.09-3.862-3.022-5.022-5.796v0c-0.747-1.787-1.122-3.606-1.124-5.455-0.011-1.853 0.422-3.539 1.3-5.059 0.877-1.519 2.188-2.643 3.931-3.372v0c1.462-0.611 2.939-0.821 4.429-0.629 1.484 0.195 2.822 0.744 4.014 1.648 1.195 0.91 2.099 2.096 2.71 3.558v0c0.17 0.406 0.308 0.771 0.413 1.094 0.108 0.329 0.197 0.612 0.266 0.847v0l0.258 0.828zM86.162 28.26l11.616-4.855c-0.051-0.192-0.144-0.45-0.28-0.775v0c-0.444-1.062-1.101-1.922-1.971-2.579-0.863-0.66-1.832-1.062-2.905-1.208-1.068-0.148-2.117-0.007-3.149 0.424v0c-1.544 0.645-2.627 1.759-3.251 3.341-0.63 1.585-0.65 3.469-0.06 5.652z" fill="#3d4335" data-fill-palette-color="primary"></path><path d="M117.319 39.104c1.513-0.234 2.617-0.697 3.312-1.387v0c0.338-0.299 0.624-0.683 0.86-1.151 0.229-0.467 0.385-0.968 0.466-1.502v0l0.798-5.069-12.116-19.529 2.55-0.395 10.066 16.783 2.535-18.736 2.51-0.39-4.122 27.732c-0.262 1.535-0.887 2.766-1.875 3.694v0c-1.043 0.964-2.509 1.592-4.396 1.885v0z" fill="#3d4335" data-fill-palette-color="primary"></path><path d="M146.361 0l0.728 0.076 10.258 16.324 13.652-13.826 0.728 0.076-2.953 28.265-2.446-0.255 2.003-19.171c0.085-0.815 0.332-2.138 0.741-3.968v0c-1.652 1.864-3.675 4.019-6.069 6.466-2.4 2.439-4.386 4.333-5.957 5.681v0c-3.002-4.189-5.5-7.79-7.494-10.804v0c-0.351-0.554-0.655-1.066-0.912-1.536-0.251-0.469-0.496-0.988-0.736-1.558v0c0.008-0.081 0.024 0.292 0.047 1.118v0c0.023 0.826 0.011 1.455-0.034 1.886v0l-2.063 19.747-2.445-0.256z" fill="#3d4335" data-fill-palette-color="primary"></path><path d="M182.343 35.862l7.194-19.244 2.303 0.861-7.194 19.244zM191.534 14.555c-0.438-0.164-0.756-0.463-0.955-0.899-0.205-0.438-0.226-0.876-0.062-1.314v0c0.173-0.463 0.481-0.793 0.923-0.99 0.438-0.205 0.876-0.226 1.314-0.062v0c0.463 0.173 0.793 0.481 0.989 0.923 0.199 0.436 0.211 0.885 0.038 1.349v0c-0.164 0.438-0.463 0.756-0.899 0.955-0.436 0.199-0.885 0.211-1.348 0.038z" fill="#3d4335" data-fill-palette-color="primary"></path><path d="M205.098 30.931c1.118-1.785 1.5-3.448 1.146-4.989v0l2.121-0.458c0.573 1.358 0.569 2.806-0.012 4.345v0c1.447-0.613 2.81-0.882 4.091-0.808 1.274 0.071 2.583 0.527 3.926 1.369v0c1.808 1.132 2.912 2.503 3.312 4.111 0.394 1.605 0.007 3.313-1.159 5.125v0l-7.659 12-2.015-1.262 7.347-11.656c1.744-2.784 1.352-4.968-1.174-6.549v0c-1.183-0.741-2.362-1.084-3.539-1.03-1.177 0.054-2.604 0.412-4.28 1.073v0l-7.706 12.305-2.084-1.305z" fill="#3d4335" data-fill-palette-color="primary"></path><path d="M218.838 74.034c-4.269-4.623-4.505-8.688-0.708-12.194v0c0.319-0.294 0.959-0.789 1.921-1.484v0l0.896-0.661c-0.054-0.697 0.044-1.396 0.292-2.096 0.253-0.695 0.651-1.292 1.193-1.793v0c0.562-0.519 1.285-0.905 2.168-1.158 0.878-0.257 1.812-0.175 2.801 0.249v0c0.325 0.152 0.622 0.334 0.892 0.545 0.274 0.217 0.626 0.538 1.054 0.963v0c0.218-1.621 0.959-3.015 2.223-4.183v0c1.105-1.02 2.302-1.651 3.591-1.892 1.284-0.237 2.548-0.126 3.791 0.331 1.238 0.452 2.339 1.2 3.304 2.245v0c0.722 0.781 1.23 1.616 1.526 2.506v0l4.591 4.971-1.538 1.42-2.358-2.912c-0.124 1.793-0.9 3.348-2.328 4.667v0c-1.647 1.521-3.426 2.186-5.336 1.995-1.905-0.196-3.636-1.137-5.194-2.824v0c-1.02-1.105-1.709-2.275-2.067-3.512v0c-0.365-0.475-0.705-0.884-1.023-1.227v0c-0.409-0.443-0.754-0.756-1.034-0.94v0c-0.422-0.247-0.954-0.359-1.597-0.337-0.653 0.022-1.26 0.293-1.823 0.812v0c-0.642 0.593-0.881 1.242-0.717 1.949 0.169 0.702 0.669 1.503 1.5 2.404v0l1.956 1.997 2.424 2.506c1.893 2.05 3.021 4.015 3.382 5.894 0.356 1.884-0.217 3.519-1.719 4.907v0c-1.707 1.576-3.641 1.993-5.802 1.25-2.152-0.742-4.238-2.208-6.261-4.398zM233.242 61.341c1.149 1.244 2.368 1.88 3.656 1.907 1.284 0.022 2.468-0.467 3.553-1.469v0c1.164-1.075 1.752-2.282 1.762-3.618 0.02-1.337-0.517-2.597-1.611-3.782v0c-1.112-1.204-2.326-1.83-3.643-1.878-1.316-0.057-2.546 0.443-3.691 1.5v0c-1.184 1.094-1.757 2.296-1.718 3.606 0.034 1.305 0.598 2.55 1.692 3.734zM220.465 72.532c3.635 3.936 6.537 4.903 8.708 2.899v0c1.946-1.797 1.388-4.352-1.673-7.667v0c-0.855-0.926-1.635-1.731-2.341-2.416v0l-1.257-1.301c-0.91-0.985-1.575-1.805-1.995-2.459v0l-1.923 1.901c-1.068 1.06-1.743 2.052-2.024 2.975-0.277 0.929-0.213 1.866 0.19 2.812 0.408 0.941 1.18 2.027 2.315 3.256z" fill="#3d4335" data-fill-palette-color="primary"></path><path d="M240.174 84.419l25.194-15.86 1.31 2.081-25.194 15.86z" fill="#3d4335" data-fill-palette-color="primary"></path><path d="M256.677 96.815c-1.781 0.691-3.257 1.735-4.429 3.132-1.172 1.397-1.285 3.365-0.341 5.905v0c0.408 1.098 0.927 2.065 1.556 2.901 0.626 0.829 1.466 1.677 2.518 2.543v0l-1.238 1.599c-1.075-0.771-2.052-1.709-2.932-2.812-0.874-1.106-1.553-2.31-2.037-3.611v0c-1.001-2.692-0.917-5.108 0.253-7.249 1.176-2.143 3.174-3.739 5.992-4.787v0c1.816-0.675 3.648-0.977 5.496-0.906 1.852 0.063 3.519 0.563 5.002 1.5 1.483 0.937 2.554 2.291 3.213 4.063v0c0.553 1.486 0.703 2.969 0.452 4.45-0.254 1.475-0.856 2.79-1.806 3.946-0.957 1.158-2.178 2.013-3.664 2.566v0c-0.413 0.153-0.782 0.277-1.11 0.369-0.333 0.095-0.619 0.172-0.856 0.232v0l-0.838 0.225zM258.795 96.157l4.388 11.799c0.194-0.043 0.455-0.126 0.786-0.248v0c1.079-0.401 1.965-1.023 2.656-1.866 0.694-0.836 1.135-1.788 1.323-2.855 0.191-1.061 0.091-2.115-0.298-3.163v0c-0.583-1.568-1.653-2.695-3.209-3.382-1.558-0.692-3.44-0.787-5.646-0.285z" fill="#3d4335" data-fill-palette-color="primary"></path><path d="M0.589 145.941c0-6.281 5.092-11.372 11.372-11.373 6.281 0 11.372 5.092 11.373 11.373 0 6.281-5.092 11.372-11.373 11.372-6.281 0-11.372-5.092-11.372-11.372z" fill="#3d4335" data-fill-palette-color="primary"></path><path d="M256.386 145.941c0-6.281 5.092-11.372 11.373-11.373 6.281 0 11.372 5.092 11.372 11.373 0 6.281-5.092 11.372-11.372 11.372-6.281 0-11.372-5.092-11.373-11.372z" fill="#3d4335" data-fill-palette-color="primary"></path></g><g id="text-1"><path d="M21.449 178.541c0.196-0.142 0.261-0.326 0.195-0.554v0l0.812-0.262c0.087 0.271 0.089 0.551 0.005 0.842v0c-0.075 0.273-0.241 0.498-0.498 0.673v0l-6.732 4.844-0.271 0.152 0.312-0.026 9.135-0.015 0.269 0.832-7.418 5.332-0.368 0.215 0.425-0.041 9.119-0.063 0.275 0.851-10.706-0.022-0.269-0.832 7.47-5.435-9.228-0.008-0.272-0.841z" fill="#3d4335" data-fill-palette-color="secondary"></path><path d="M28.081 192.919l0.353 0.821-4.089 1.758c0.512 0.111 0.939 0.315 1.281 0.611 0.347 0.293 0.627 0.685 0.837 1.177v0c0.316 0.734 0.361 1.371 0.136 1.91-0.234 0.536-0.706 0.956-1.415 1.261v0l-4.733 2.035-0.353-0.822 4.583-1.97c0.504-0.217 0.847-0.508 1.029-0.874 0.179-0.372 0.163-0.804-0.048-1.295v0c-0.187-0.436-0.471-0.778-0.851-1.028-0.371-0.246-0.856-0.439-1.455-0.58v0l-4.835 2.079-0.354-0.821z" fill="#3d4335" data-fill-palette-color="secondary"></path><path d="M25.155 204.259c-0.616 0.327-1.102 0.766-1.458 1.316-0.359 0.56-0.314 1.272 0.135 2.139v0c0.196 0.379 0.427 0.706 0.691 0.981 0.261 0.269 0.601 0.535 1.02 0.799v0l-0.382 0.632c-0.418-0.233-0.81-0.526-1.176-0.878-0.363-0.361-0.661-0.768-0.894-1.219v0c-0.477-0.92-0.551-1.793-0.224-2.619 0.325-0.817 0.971-1.476 1.94-1.977v0c0.626-0.324 1.271-0.513 1.936-0.569 0.672-0.058 1.294 0.047 1.868 0.314 0.577 0.274 1.022 0.714 1.337 1.322v0c0.265 0.511 0.384 1.037 0.359 1.576-0.029 0.549-0.188 1.051-0.479 1.507-0.296 0.459-0.697 0.819-1.202 1.08v0c-0.144 0.075-0.272 0.137-0.384 0.188-0.115 0.044-0.212 0.083-0.293 0.117v0l-0.294 0.118zM25.886 203.926l2.098 4.051c0.063-0.025 0.152-0.067 0.267-0.126v0c0.367-0.19 0.659-0.452 0.875-0.785 0.21-0.33 0.328-0.692 0.352-1.087 0.019-0.391-0.065-0.767-0.252-1.128v0c-0.277-0.535-0.71-0.891-1.297-1.068-0.59-0.182-1.271-0.135-2.043 0.143z" fill="#3d4335" data-fill-palette-color="secondary"></path><path d="M34.182 211.93c0.152 0.256 0.267 0.535 0.344 0.836v0l-0.716 0.426c-0.091-0.285-0.209-0.55-0.354-0.794v0c-0.26-0.437-0.579-0.728-0.957-0.873v0c-0.369-0.143-0.812-0.206-1.331-0.189v0l-4.549 2.707-0.457-0.768 4.47-2.661c0.669-0.398 1.056-0.869 1.159-1.41v0l0.816 0.199c0 0.213-0.053 0.441-0.159 0.686-0.112 0.248-0.263 0.472-0.452 0.671v0c0.532 0.007 0.942 0.086 1.229 0.238v0c0.375 0.179 0.694 0.49 0.957 0.932z" fill="#3d4335" data-fill-palette-color="secondary"></path><path d="M32.423 216.903c-0.575 0.395-1.009 0.886-1.299 1.473-0.293 0.597-0.167 1.3 0.376 2.109v0c0.238 0.354 0.504 0.653 0.798 0.897 0.29 0.238 0.658 0.464 1.104 0.678v0l-0.307 0.671c-0.442-0.184-0.865-0.431-1.268-0.739-0.401-0.318-0.744-0.688-1.027-1.11v0c-0.578-0.86-0.751-1.719-0.519-2.576 0.23-0.848 0.798-1.576 1.703-2.185v0c0.585-0.393 1.205-0.654 1.86-0.784 0.661-0.134 1.291-0.1 1.891 0.1 0.604 0.206 1.096 0.594 1.478 1.162v0c0.321 0.478 0.499 0.986 0.535 1.525 0.034 0.548-0.068 1.065-0.304 1.551-0.243 0.489-0.6 0.893-1.073 1.21v0c-0.135 0.091-0.255 0.167-0.36 0.23-0.109 0.057-0.202 0.107-0.278 0.15v0l-0.279 0.151zM33.112 216.489l2.544 3.787c0.06-0.032 0.143-0.084 0.25-0.156v0c0.343-0.23 0.603-0.523 0.781-0.879 0.172-0.352 0.247-0.725 0.227-1.119-0.026-0.391-0.152-0.755-0.379-1.092v0c-0.336-0.5-0.806-0.805-1.409-0.914-0.607-0.114-1.278 0.01-2.014 0.373z" fill="#3d4335" data-fill-palette-color="secondary"></path><path d="M40.587 233.63c-0.622-0.725-1.001-1.529-1.135-2.414-0.134-0.894-0.039-1.766 0.284-2.615 0.319-0.855 0.836-1.589 1.551-2.203v0c0.73-0.627 1.563-1.039 2.5-1.237 0.938-0.207 1.851-0.179 2.739 0.086 0.897 0.265 1.644 0.744 2.24 1.438v0c0.538 0.627 0.902 1.341 1.091 2.143 0.19 0.793-0.072 1.522-0.786 2.189v0l-0.582-0.679c0.481-0.449 0.626-0.966 0.435-1.552-0.191-0.586-0.487-1.113-0.889-1.58v0c-0.481-0.56-1.096-0.938-1.845-1.135-0.749-0.196-1.512-0.201-2.29-0.015-0.783 0.19-1.47 0.539-2.061 1.047v0c-0.57 0.49-0.988 1.085-1.253 1.786-0.274 0.7-0.355 1.417-0.242 2.15 0.107 0.738 0.419 1.408 0.936 2.009v0c0.472 0.55 1.035 0.95 1.688 1.202 0.653 0.261 1.304 0.344 1.956 0.249v0l0.091 0.886c-0.839 0.104-1.65-0.003-2.433-0.321-0.783-0.319-1.448-0.797-1.995-1.434z" fill="#3d4335" data-fill-palette-color="secondary"></path><path d="M47.153 240.471c-0.591-0.587-0.889-1.181-0.896-1.779-0.016-0.599 0.248-1.172 0.792-1.72v0l3.626-3.645 0.634 0.63-3.511 3.531c-0.392 0.394-0.606 0.792-0.643 1.194-0.037 0.402 0.16 0.819 0.592 1.249v0c0.365 0.363 0.761 0.575 1.188 0.636 0.417 0.061 0.941 0.043 1.573-0.055v0l3.675-3.696 0.634 0.63-3.697 3.718c-0.544 0.548-0.821 1.099-0.828 1.655v0l-0.769-0.02c-0.044-0.263-0.028-0.534 0.048-0.812 0.081-0.283 0.195-0.532 0.343-0.748v0c-0.574 0.126-1.087 0.123-1.538-0.01-0.446-0.138-0.854-0.39-1.223-0.758z" fill="#3d4335" data-fill-palette-color="secondary"></path><path d="M59.388 241.302c0.224 0.197 0.419 0.427 0.585 0.689v0l-0.55 0.626c-0.174-0.243-0.368-0.459-0.582-0.646v0c-0.382-0.335-0.775-0.514-1.179-0.536v0c-0.395-0.022-0.836 0.054-1.324 0.229v0l-3.494 3.977-0.672-0.59 3.434-3.908c0.514-0.585 0.737-1.152 0.667-1.699v0l0.839-0.061c0.066 0.202 0.086 0.436 0.06 0.701-0.03 0.271-0.105 0.53-0.224 0.778v0c0.508-0.158 0.922-0.208 1.243-0.152v0c0.412 0.055 0.811 0.252 1.198 0.592z" fill="#3d4335" data-fill-palette-color="secondary"></path><path d="M64.159 245.161c0.233 0.185 0.439 0.405 0.618 0.659v0l-0.518 0.653c-0.186-0.234-0.39-0.44-0.613-0.617v0c-0.398-0.316-0.799-0.475-1.205-0.477v0c-0.396-0.003-0.833 0.095-1.311 0.295v0l-3.293 4.145-0.7-0.556 3.236-4.074c0.485-0.61 0.679-1.187 0.583-1.73v0l0.834-0.102c0.076 0.199 0.107 0.431 0.095 0.698-0.017 0.272-0.079 0.534-0.185 0.787v0c0.5-0.183 0.911-0.254 1.234-0.213v0c0.414 0.035 0.822 0.212 1.225 0.532z" fill="#3d4335" data-fill-palette-color="secondary"></path><path d="M64.278 250.434c-0.398 0.573-0.629 1.186-0.692 1.838-0.062 0.662 0.305 1.275 1.1 1.839v0c0.348 0.247 0.703 0.432 1.064 0.555 0.356 0.119 0.78 0.2 1.273 0.242v0l-0.049 0.737c-0.479-0.016-0.961-0.096-1.448-0.242-0.488-0.155-0.939-0.379-1.354-0.673v0c-0.846-0.599-1.312-1.341-1.399-2.225-0.086-0.875 0.187-1.757 0.817-2.646v0c0.407-0.575 0.894-1.039 1.461-1.393 0.57-0.36 1.172-0.552 1.804-0.577 0.638-0.021 1.236 0.166 1.793 0.561v0c0.47 0.333 0.817 0.745 1.042 1.237 0.226 0.501 0.315 1.02 0.265 1.558-0.053 0.544-0.244 1.047-0.573 1.512v0c-0.094 0.133-0.179 0.247-0.255 0.342-0.082 0.092-0.151 0.171-0.207 0.239v0l-0.207 0.24zM64.776 249.803l3.721 2.638c0.045-0.051 0.104-0.13 0.179-0.235v0c0.239-0.337 0.378-0.703 0.418-1.098 0.036-0.39-0.026-0.766-0.185-1.128-0.163-0.356-0.41-0.652-0.741-0.886v0c-0.492-0.349-1.039-0.467-1.642-0.355-0.608 0.108-1.192 0.463-1.75 1.064z" fill="#3d4335" data-fill-palette-color="secondary"></path><path d="M72.077 253.523c0.4-0.653 0.533-1.258 0.399-1.818v0l0.772-0.17c0.207 0.492 0.21 1.019 0.009 1.579v0c0.522-0.228 1.014-0.332 1.478-0.31 0.463 0.022 0.94 0.183 1.431 0.485v0c0.658 0.404 1.06 0.896 1.204 1.477 0.154 0.579 0.022 1.201-0.395 1.867v0l-2.736 4.365-0.736-0.451 2.625-4.242c0.623-1.016 0.473-1.808-0.451-2.375v0c-0.427-0.262-0.855-0.381-1.283-0.357-0.428 0.024-0.943 0.157-1.544 0.4v0l-2.751 4.487-0.763-0.468z" fill="#3d4335" data-fill-palette-color="secondary"></path><path d="M79.785 264.068c-0.955-0.498-1.555-1.185-1.801-2.062-0.24-0.874-0.095-1.818 0.434-2.833v0c0.366-0.703 0.823-1.255 1.369-1.658 0.546-0.403 1.136-0.626 1.771-0.67 0.634-0.044 1.269 0.1 1.905 0.432v0c0.348 0.182 0.643 0.415 0.884 0.702 0.235 0.283 0.44 0.65 0.617 1.101v0l-0.771 0.205c-0.098-0.311-0.231-0.567-0.401-0.77-0.172-0.197-0.406-0.372-0.7-0.526v0c-0.733-0.382-1.452-0.425-2.156-0.128-0.705 0.297-1.286 0.884-1.744 1.761v0c-0.423 0.811-0.544 1.542-0.364 2.194 0.177 0.657 0.64 1.182 1.391 1.573v0c0.643 0.335 1.443 0.493 2.4 0.473v0l0.056 0.728c-0.489 0.058-0.985 0.044-1.49-0.044-0.501-0.093-0.968-0.253-1.4-0.478z" fill="#3d4335" data-fill-palette-color="secondary"></path><path d="M84.58 266.329l3.155-6.747 0.81 0.379-3.155 6.747zM88.512 258.903c-0.153-0.072-0.26-0.189-0.318-0.351-0.056-0.168-0.048-0.329 0.024-0.483v0c0.075-0.16 0.193-0.269 0.355-0.327 0.162-0.059 0.32-0.052 0.473 0.019v0c0.16 0.075 0.272 0.194 0.337 0.36 0.059 0.162 0.051 0.323-0.024 0.482v0c-0.072 0.153-0.19 0.263-0.355 0.328-0.168 0.056-0.332 0.047-0.492-0.028z" fill="#3d4335" data-fill-palette-color="secondary"></path><path d="M90.156 265.037c-0.256 0.649-0.34 1.299-0.252 1.948 0.091 0.658 0.589 1.171 1.493 1.537v0c0.396 0.16 0.783 0.259 1.163 0.296 0.373 0.034 0.805 0.015 1.295-0.057v0l0.121 0.729c-0.47 0.095-0.958 0.127-1.464 0.097-0.511-0.039-1.001-0.153-1.473-0.344v0c-0.961-0.389-1.585-1.004-1.873-1.844-0.284-0.831-0.222-1.753 0.188-2.763v0c0.264-0.653 0.632-1.217 1.102-1.692 0.473-0.481 1.014-0.806 1.623-0.976 0.616-0.167 1.241-0.122 1.875 0.135v0c0.534 0.216 0.966 0.538 1.297 0.964 0.335 0.435 0.541 0.921 0.617 1.456 0.073 0.541 0.003 1.075-0.211 1.602v0c-0.061 0.151-0.118 0.281-0.17 0.392-0.058 0.108-0.107 0.201-0.146 0.281v0l-0.147 0.28zM90.495 264.309l4.228 1.712c0.032-0.06 0.072-0.15 0.12-0.269v0c0.155-0.383 0.207-0.771 0.155-1.165-0.055-0.388-0.201-0.739-0.439-1.055-0.24-0.309-0.549-0.54-0.926-0.693v0c-0.559-0.226-1.119-0.216-1.679 0.033-0.567 0.245-1.053 0.724-1.459 1.437z" fill="#3d4335" data-fill-palette-color="secondary"></path><path d="M98.622 272.032c-0.951-0.317-1.711-0.981-2.281-1.993v0l0.649-0.405c0.263 0.409 0.546 0.75 0.848 1.022 0.293 0.276 0.643 0.482 1.047 0.618v0c0.508 0.169 0.947 0.18 1.318 0.032 0.362-0.143 0.612-0.421 0.749-0.832v0c0.088-0.263 0.099-0.499 0.032-0.707-0.075-0.204-0.2-0.395-0.376-0.575-0.178-0.174-0.502-0.464-0.973-0.871v0c-0.426-0.371-0.753-0.676-0.98-0.916-0.218-0.244-0.372-0.502-0.459-0.775-0.088-0.272-0.075-0.578 0.038-0.918v0c0.184-0.553 0.531-0.93 1.042-1.131 0.503-0.203 1.083-0.196 1.738 0.023v0c0.341 0.114 0.662 0.274 0.964 0.482 0.304 0.201 0.542 0.431 0.713 0.688v0l-0.55 0.491c-0.343-0.407-0.787-0.702-1.333-0.884v0c-0.431-0.144-0.793-0.172-1.086-0.084-0.293 0.088-0.493 0.289-0.598 0.604v0c-0.077 0.231-0.077 0.446 0 0.643 0.079 0.191 0.202 0.367 0.37 0.53 0.171 0.171 0.46 0.429 0.867 0.771v0c0.46 0.396 0.81 0.731 1.047 1.003 0.238 0.272 0.398 0.561 0.482 0.868 0.086 0.3 0.067 0.633-0.055 0.999v0c-0.216 0.649-0.618 1.093-1.205 1.333-0.587 0.24-1.256 0.234-2.008-0.016z" fill="#3d4335" data-fill-palette-color="secondary"></path><path d="M112.738 275.769c-0.741-0.163-1.351-0.481-1.829-0.954-0.485-0.474-0.816-1.05-0.994-1.727-0.177-0.677-0.182-1.396-0.014-2.157v0l1.331-6.053 0.873 0.192-1.331 6.053c-0.143 0.648-0.145 1.241-0.006 1.778 0.145 0.538 0.407 0.988 0.785 1.348 0.385 0.362 0.849 0.603 1.392 0.722v0c0.549 0.121 1.071 0.097 1.566-0.071 0.488-0.17 0.909-0.473 1.261-0.909 0.352-0.436 0.599-0.971 0.738-1.606v0l1.331-6.053 0.864 0.189-1.332 6.054c-0.176 0.8-0.493 1.469-0.951 2.006-0.458 0.537-1.008 0.909-1.65 1.115-0.642 0.206-1.32 0.23-2.034 0.073z" fill="#3d4335" data-fill-palette-color="secondary"></path><path d="M120.897 271.789c0.103-0.758-0.02-1.366-0.367-1.824v0l0.638-0.467c0.388 0.367 0.603 0.847 0.645 1.441v0c0.385-0.419 0.794-0.713 1.227-0.88 0.433-0.167 0.934-0.211 1.505-0.134v0c0.765 0.104 1.331 0.393 1.697 0.867 0.374 0.468 0.505 1.091 0.392 1.868v0l-0.743 5.098-0.856-0.117 0.691-4.94c0.16-1.181-0.296-1.845-1.37-1.991v0c-0.497-0.067-0.936-0.004-1.318 0.19-0.382 0.194-0.799 0.524-1.252 0.989v0l-0.708 5.215-0.886-0.12z" fill="#3d4335" data-fill-palette-color="secondary"></path><path d="M129.213 278.054l0.633-7.421 0.891 0.076-0.633 7.421zM130.341 269.727c-0.169-0.014-0.309-0.087-0.42-0.22-0.111-0.139-0.159-0.292-0.144-0.461v0c0.015-0.175 0.088-0.319 0.22-0.429 0.132-0.111 0.282-0.16 0.451-0.146v0c0.175 0.015 0.322 0.089 0.44 0.221 0.111 0.132 0.159 0.285 0.145 0.461v0c-0.014 0.169-0.088 0.312-0.221 0.43-0.139 0.111-0.296 0.158-0.471 0.144z" fill="#3d4335" data-fill-palette-color="secondary"></path><path d="M135.491 278.611c-0.711-0.031-1.234-0.241-1.569-0.628-0.335-0.394-0.485-0.998-0.449-1.81v0l0.314-7.136 0.893 0.039-0.082 1.858 2.335 0.103-0.035 0.802-2.335-0.103-0.197 4.476c-0.028 0.629 0.069 1.051 0.29 1.264 0.228 0.213 0.514 0.328 0.86 0.343v0c0.21 0.009 0.383 0.003 0.519-0.018 0.143-0.021 0.298-0.075 0.465-0.162v0l0.376 0.698c-0.375 0.207-0.837 0.299-1.385 0.274z" fill="#3d4335" data-fill-palette-color="secondary"></path><path d="M139.521 275.051c0.014 0.698 0.186 1.329 0.518 1.895 0.338 0.572 0.994 0.853 1.969 0.843v0c0.427-0.004 0.822-0.063 1.187-0.175 0.358-0.112 0.749-0.296 1.173-0.551v0l0.393 0.626c-0.397 0.268-0.835 0.486-1.314 0.654-0.486 0.161-0.983 0.244-1.491 0.249v0c-1.036 0.011-1.849-0.316-2.439-0.98-0.583-0.658-0.88-1.532-0.891-2.623v0c-0.007-0.704 0.115-1.366 0.366-1.985 0.251-0.626 0.625-1.134 1.122-1.526 0.504-0.391 1.098-0.591 1.782-0.597v0c0.576-0.006 1.099 0.124 1.569 0.39 0.477 0.273 0.853 0.641 1.129 1.106 0.276 0.471 0.417 0.991 0.423 1.56v0c0.002 0.163 0 0.305-0.006 0.427-0.012 0.122-0.021 0.227-0.027 0.315v0l-0.027 0.316zM139.553 274.248l4.562-0.047c0.006-0.068 0.008-0.166 0.007-0.295v0c-0.004-0.413-0.106-0.791-0.306-1.135-0.2-0.337-0.47-0.605-0.811-0.805-0.341-0.193-0.714-0.287-1.121-0.283v0c-0.603 0.006-1.115 0.232-1.537 0.677-0.429 0.445-0.693 1.074-0.794 1.888z" fill="#3d4335" data-fill-palette-color="secondary"></path><path d="M147.534 279.257c0.198-0.221 0.322-0.428 0.373-0.621v0c0.021-0.116 0.027-0.249 0.018-0.398v0c-0.007-0.122-0.021-0.26-0.043-0.415-0.022-0.155-0.042-0.272-0.06-0.352v0c-0.008-0.149 0.029-0.27 0.113-0.363 0.09-0.093 0.209-0.144 0.358-0.152v0c0.142-0.008 0.26 0.033 0.352 0.123 0.087 0.097 0.134 0.21 0.141 0.339v0c0.019 0.338 0.023 0.613 0.015 0.823-0.015 0.218-0.052 0.41-0.111 0.576v0c-0.105 0.304-0.336 0.605-0.693 0.903v0z" fill="#3d4335" data-fill-palette-color="secondary"></path><path d="M162.079 276.777c-0.943 0.152-1.827 0.054-2.651-0.293-0.832-0.353-1.526-0.889-2.081-1.609-0.562-0.719-0.918-1.543-1.068-2.473v0c-0.153-0.95-0.069-1.876 0.252-2.778 0.313-0.908 0.815-1.672 1.504-2.291 0.695-0.627 1.494-1.013 2.397-1.158v0c0.816-0.132 1.615-0.068 2.397 0.189 0.775 0.252 1.26 0.857 1.456 1.814v0l-0.883 0.142c-0.131-0.644-0.497-1.038-1.096-1.182-0.599-0.143-1.204-0.166-1.812-0.068v0c-0.729 0.118-1.373 0.444-1.932 0.981-0.559 0.536-0.962 1.184-1.209 1.944-0.247 0.767-0.308 1.535-0.184 2.305v0c0.12 0.742 0.409 1.409 0.868 2 0.453 0.599 1.022 1.043 1.706 1.331 0.686 0.294 1.42 0.378 2.202 0.252v0c0.716-0.115 1.351-0.386 1.907-0.812 0.563-0.42 0.975-0.933 1.235-1.537v0l0.803 0.385c-0.349 0.77-0.864 1.405-1.546 1.906-0.681 0.501-1.436 0.818-2.265 0.952z" fill="#3d4335" data-fill-palette-color="secondary"></path><path d="M171.932 274.629c-0.684 0.168-1.332 0.156-1.944-0.036-0.61-0.185-1.133-0.524-1.568-1.017-0.441-0.492-0.751-1.099-0.928-1.823v0c-0.177-0.724-0.185-1.409-0.023-2.055 0.162-0.647 0.474-1.197 0.934-1.652 0.454-0.453 1.023-0.763 1.707-0.931v0c0.671-0.165 1.313-0.151 1.924 0.04 0.612 0.192 1.139 0.537 1.583 1.035 0.441 0.492 0.75 1.096 0.926 1.813v0c0.177 0.724 0.184 1.405 0.02 2.045-0.162 0.647-0.47 1.196-0.924 1.65-0.454 0.453-1.023 0.763-1.707 0.931zM171.76 273.845c0.796-0.195 1.37-0.629 1.721-1.301 0.353-0.665 0.42-1.442 0.203-2.33v0c-0.144-0.586-0.382-1.075-0.715-1.468-0.333-0.393-0.731-0.665-1.194-0.816-0.469-0.15-0.96-0.162-1.474-0.036v0c-0.533 0.131-0.969 0.37-1.309 0.719-0.347 0.35-0.572 0.782-0.676 1.296-0.112 0.509-0.098 1.053 0.044 1.631v0c0.142 0.579 0.38 1.065 0.713 1.457 0.327 0.394 0.725 0.666 1.194 0.816 0.463 0.152 0.96 0.162 1.493 0.032z" fill="#3d4335" data-fill-palette-color="secondary"></path><path d="M176.631 267.756c-0.234-0.729-0.606-1.225-1.117-1.488v0l0.374-0.696c0.508 0.164 0.909 0.505 1.203 1.022v0c0.167-0.544 0.41-0.985 0.729-1.322 0.319-0.337 0.752-0.593 1.3-0.769v0c0.735-0.236 1.37-0.219 1.905 0.051 0.539 0.261 0.925 0.767 1.159 1.517v0l1.525 4.921-0.822 0.263-1.505-4.756c-0.364-1.135-1.062-1.537-2.094-1.207v0c-0.477 0.153-0.846 0.4-1.107 0.74-0.261 0.34-0.496 0.817-0.704 1.431v0l1.607 5.012-0.851 0.273z" fill="#3d4335" data-fill-palette-color="secondary"></path><path d="M184.388 264.137c-0.132-0.129-0.286-0.239-0.461-0.329-0.184-0.094-0.36-0.151-0.528-0.171v0l0.202-0.804c0.588 0.1 1.152 0.45 1.692 1.05v0l3.568 3.867-0.187-6.681 0.83-0.333 0.2 7.913-0.858 0.344z" fill="#3d4335" data-fill-palette-color="secondary"></path><path d="M193.473 263.315c0.306 0.627 0.728 1.128 1.266 1.502 0.547 0.377 1.261 0.356 2.142-0.063v0c0.385-0.183 0.72-0.403 1.003-0.657 0.278-0.252 0.555-0.583 0.833-0.993v0l0.619 0.403c-0.247 0.41-0.553 0.792-0.917 1.145-0.373 0.35-0.79 0.635-1.249 0.853v0c-0.936 0.445-1.811 0.49-2.625 0.135-0.805-0.352-1.442-1.02-1.91-2.005v0c-0.303-0.636-0.47-1.288-0.503-1.955-0.035-0.673 0.09-1.292 0.377-1.856 0.293-0.567 0.748-0.997 1.366-1.291v0c0.52-0.247 1.049-0.349 1.587-0.306 0.547 0.047 1.044 0.223 1.49 0.529 0.448 0.312 0.795 0.724 1.039 1.239v0c0.07 0.147 0.128 0.277 0.174 0.389 0.04 0.116 0.076 0.215 0.108 0.298v0l0.108 0.297zM193.164 262.573l4.12-1.96c-0.023-0.064-0.062-0.154-0.118-0.271v0c-0.178-0.373-0.429-0.673-0.755-0.901-0.323-0.221-0.681-0.351-1.074-0.389-0.39-0.032-0.769 0.04-1.136 0.214v0c-0.544 0.259-0.915 0.679-1.11 1.26-0.202 0.584-0.178 1.266 0.073 2.047z" fill="#3d4335" data-fill-palette-color="secondary"></path><path d="M201.444 254.552c0.261-0.144 0.543-0.249 0.847-0.316v0l0.402 0.73c-0.288 0.081-0.556 0.19-0.806 0.327v0c-0.445 0.245-0.747 0.554-0.905 0.928v0c-0.155 0.364-0.233 0.805-0.234 1.323v0l2.553 4.638-0.784 0.431-2.508-4.558c-0.376-0.682-0.833-1.084-1.371-1.205v0l0.227-0.81c0.212 0.007 0.439 0.068 0.68 0.183 0.244 0.121 0.463 0.279 0.656 0.474v0c0.024-0.532 0.118-0.938 0.279-1.221v0c0.192-0.368 0.513-0.677 0.964-0.924z" fill="#3d4335" data-fill-palette-color="secondary"></path><path d="M209.954 258.474c-0.851 0.529-1.848 0.69-2.99 0.482v0l0.103-0.758c0.483 0.059 0.926 0.059 1.328 0 0.4-0.049 0.781-0.187 1.144-0.411v0c0.454-0.282 0.743-0.614 0.866-0.993 0.121-0.37 0.067-0.739-0.162-1.108v0c-0.147-0.236-0.321-0.395-0.523-0.476-0.204-0.072-0.432-0.098-0.683-0.078-0.247 0.026-0.678 0.09-1.292 0.192v0c-0.557 0.091-1.001 0.148-1.33 0.169-0.327 0.012-0.624-0.035-0.889-0.141-0.265-0.106-0.493-0.312-0.683-0.616v0c-0.308-0.495-0.376-1.003-0.205-1.524 0.165-0.517 0.541-0.958 1.128-1.323v0c0.305-0.19 0.634-0.334 0.986-0.434 0.349-0.105 0.677-0.142 0.985-0.109v0l0.027 0.737c-0.532 0.004-1.043 0.158-1.531 0.461v0c-0.385 0.24-0.638 0.5-0.758 0.782-0.12 0.282-0.092 0.564 0.083 0.846v0c0.129 0.207 0.294 0.344 0.494 0.41 0.197 0.061 0.412 0.079 0.644 0.055 0.241-0.022 0.624-0.081 1.147-0.175v0c0.599-0.101 1.079-0.156 1.441-0.166 0.361-0.009 0.686 0.052 0.975 0.184 0.285 0.126 0.53 0.352 0.734 0.68v0c0.361 0.581 0.447 1.174 0.256 1.779-0.19 0.605-0.622 1.116-1.295 1.535z" fill="#3d4335" data-fill-palette-color="secondary"></path><path d="M214.291 255.445l-4.18-6.163 0.74-0.502 4.18 6.163zM209.925 248.266c-0.14 0.095-0.295 0.126-0.464 0.093-0.173-0.038-0.307-0.127-0.403-0.267v0c-0.099-0.146-0.132-0.303-0.099-0.473 0.032-0.169 0.119-0.302 0.259-0.396v0c0.146-0.099 0.306-0.134 0.481-0.105 0.169 0.032 0.303 0.122 0.402 0.267v0c0.095 0.14 0.128 0.298 0.1 0.473-0.038 0.173-0.13 0.309-0.276 0.408z" fill="#3d4335" data-fill-palette-color="secondary"></path><path d="M220.397 251.134c-0.56 0.427-1.159 0.675-1.797 0.745-0.633 0.074-1.248-0.028-1.843-0.306-0.601-0.274-1.128-0.707-1.58-1.3v0c-0.452-0.592-0.733-1.217-0.843-1.875-0.11-0.658-0.045-1.287 0.196-1.887 0.235-0.597 0.632-1.109 1.192-1.536v0c0.549-0.419 1.143-0.663 1.781-0.732 0.638-0.069 1.259 0.036 1.864 0.315 0.601 0.274 1.126 0.705 1.573 1.292v0c0.452 0.592 0.731 1.215 0.837 1.867 0.11 0.658 0.047 1.285-0.188 1.881-0.235 0.597-0.632 1.109-1.192 1.536zM219.926 250.484c0.652-0.497 1.004-1.124 1.057-1.881 0.057-0.751-0.191-1.49-0.746-2.217v0c-0.366-0.479-0.78-0.832-1.242-1.058-0.463-0.226-0.936-0.317-1.421-0.271-0.49 0.05-0.945 0.235-1.365 0.556v0c-0.436 0.333-0.74 0.727-0.913 1.182-0.178 0.459-0.212 0.945-0.101 1.458 0.1 0.511 0.331 1.004 0.693 1.478v0c0.362 0.474 0.774 0.824 1.236 1.05 0.457 0.231 0.931 0.321 1.421 0.271 0.485-0.046 0.945-0.235 1.381-0.568z" fill="#3d4335" data-fill-palette-color="secondary"></path><path d="M221.956 242.955c-0.506-0.575-1.045-0.88-1.619-0.917v0l0.065-0.788c0.531-0.052 1.035 0.1 1.512 0.457v0c-0.065-0.566-0.018-1.067 0.139-1.503 0.157-0.436 0.452-0.845 0.884-1.225v0c0.58-0.51 1.168-0.749 1.766-0.715 0.598 0.024 1.155 0.333 1.669 0.927v0l3.365 3.901-0.648 0.57-3.281-3.758c-0.788-0.895-1.588-0.984-2.402-0.269v0c-0.376 0.331-0.616 0.705-0.719 1.12-0.103 0.416-0.128 0.947-0.073 1.594v0l3.477 3.951-0.671 0.591z" fill="#3d4335" data-fill-palette-color="secondary"></path><path d="M233.746 239.39c-0.707 0.711-1.64 1.096-2.799 1.157v0l-0.074-0.761c0.484-0.054 0.914-0.156 1.292-0.306 0.378-0.14 0.718-0.361 1.019-0.663v0c0.377-0.379 0.582-0.768 0.615-1.166 0.033-0.388-0.105-0.735-0.413-1.04v0c-0.197-0.196-0.403-0.31-0.618-0.344-0.216-0.023-0.443 0.004-0.683 0.081-0.234 0.082-0.639 0.244-1.213 0.485v0c-0.522 0.217-0.94 0.374-1.256 0.47-0.316 0.087-0.615 0.109-0.898 0.067-0.283-0.042-0.551-0.19-0.806-0.443v0c-0.413-0.411-0.596-0.889-0.549-1.436 0.042-0.541 0.306-1.057 0.793-1.547v0c0.253-0.255 0.54-0.471 0.86-0.649 0.316-0.183 0.627-0.294 0.934-0.332v0l0.195 0.71c-0.517 0.126-0.978 0.393-1.384 0.801v0c-0.32 0.322-0.506 0.634-0.558 0.936-0.052 0.302 0.04 0.57 0.275 0.804v0c0.173 0.172 0.365 0.267 0.576 0.286 0.206 0.014 0.419-0.018 0.639-0.095 0.23-0.077 0.589-0.222 1.076-0.434v0c0.56-0.236 1.014-0.4 1.364-0.492 0.349-0.092 0.68-0.107 0.992-0.046 0.307 0.057 0.597 0.221 0.87 0.493v0c0.485 0.482 0.704 1.04 0.658 1.673-0.046 0.632-0.349 1.23-0.907 1.791z" fill="#3d4335" data-fill-palette-color="secondary"></path><path d="M235.451 221.653c0.621-0.692 1.333-1.176 2.136-1.455 0.793-0.277 1.611-0.33 2.455-0.159 0.839 0.176 1.632 0.561 2.378 1.157v0c0.799 0.638 1.376 1.371 1.729 2.199 0.357 0.823 0.465 1.671 0.322 2.545-0.142 0.883-0.521 1.712-1.138 2.484v0l-0.526 0.659c-0.051 0.064-0.158 0.199-0.323 0.405-0.161 0.201-0.491 0.566-0.991 1.095v0l-0.485 0.51-8.013-6.395zM242.341 228.348c0.951-1.191 1.388-2.342 1.312-3.452-0.072-1.115-0.654-2.108-1.745-2.978v0c-1.022-0.816-2.054-1.189-3.097-1.12-1.043 0.069-1.98 0.565-2.812 1.487v0l-1.787 2.24 6.774 5.406 0.366-0.41c0.634-0.751 0.963-1.142 0.989-1.173z" fill="#3d4335" data-fill-palette-color="secondary"></path><path d="M245.552 219.498c0.584 0.382 1.202 0.597 1.856 0.643 0.663 0.044 1.266-0.339 1.808-1.149v0c0.237-0.355 0.413-0.714 0.526-1.078 0.11-0.359 0.179-0.785 0.208-1.279v0l0.739 0.03c-0.003 0.479-0.07 0.964-0.203 1.453-0.142 0.492-0.354 0.949-0.637 1.371v0c-0.577 0.861-1.305 1.347-2.187 1.459-0.872 0.109-1.761-0.14-2.667-0.746v0c-0.585-0.392-1.063-0.866-1.432-1.423-0.375-0.561-0.583-1.157-0.625-1.788-0.038-0.637 0.133-1.24 0.514-1.808v0c0.32-0.478 0.723-0.837 1.208-1.075 0.495-0.24 1.011-0.342 1.551-0.307 0.545 0.039 1.054 0.216 1.526 0.533v0c0.135 0.09 0.251 0.172 0.349 0.246 0.094 0.079 0.175 0.146 0.245 0.2v0l0.244 0.201zM244.907 219.018l2.538-3.791c-0.053-0.043-0.132-0.101-0.239-0.173v0c-0.343-0.23-0.713-0.359-1.11-0.388-0.391-0.025-0.765 0.046-1.122 0.215-0.352 0.172-0.641 0.427-0.866 0.765v0c-0.335 0.501-0.439 1.051-0.311 1.651 0.125 0.605 0.495 1.179 1.11 1.721z" fill="#3d4335" data-fill-palette-color="secondary"></path><path d="M252.916 214.386l-9.228-5.593 0.463-0.765 9.228 5.593z" fill="#3d4335" data-fill-palette-color="secondary"></path><path d="M255.046 210.688l-6.496-3.643 0.438-0.78 6.495 3.643zM247.93 206.22c-0.083 0.148-0.207 0.245-0.373 0.291-0.172 0.043-0.332 0.024-0.48-0.059v0c-0.154-0.086-0.254-0.212-0.3-0.378-0.047-0.166-0.029-0.323 0.054-0.471v0c0.086-0.154 0.214-0.257 0.383-0.309 0.166-0.047 0.326-0.027 0.479 0.059v0c0.148 0.083 0.248 0.209 0.301 0.378 0.043 0.172 0.022 0.335-0.064 0.489z" fill="#3d4335" data-fill-palette-color="secondary"></path><path d="M261.899 205.643c-0.997 2.046-2.339 2.658-4.026 1.836v0c-0.14-0.068-0.392-0.217-0.754-0.447v0l-0.338-0.21c-0.232 0.105-0.482 0.161-0.749 0.167-0.27 0.012-0.523-0.04-0.76-0.156v0c-0.25-0.122-0.476-0.315-0.679-0.579-0.203-0.265-0.295-0.592-0.278-0.983v0c0.005-0.133 0.025-0.259 0.06-0.378 0.035-0.119 0.097-0.277 0.186-0.474v0c-0.571 0.136-1.137 0.068-1.697-0.206v0c-0.493-0.24-0.865-0.561-1.114-0.961-0.249-0.4-0.378-0.84-0.386-1.318-0.014-0.482 0.092-0.954 0.317-1.417v0c0.169-0.347 0.384-0.627 0.645-0.838v0l1.077-2.21 0.676 0.329-0.665 1.179c0.619-0.188 1.245-0.128 1.879 0.181v0c0.731 0.356 1.19 0.866 1.379 1.531 0.186 0.671 0.096 1.38-0.269 2.129v0c-0.237 0.487-0.542 0.874-0.915 1.159v0c-0.113 0.186-0.207 0.355-0.281 0.508v0c-0.095 0.195-0.157 0.353-0.186 0.474v0c-0.022 0.17 0.011 0.363 0.101 0.581 0.09 0.217 0.26 0.387 0.51 0.508v0c0.286 0.139 0.538 0.134 0.754-0.017 0.217-0.151 0.421-0.424 0.614-0.82v0l0.418-0.926 0.524-1.146c0.442-0.907 0.957-1.546 1.544-1.916 0.587-0.37 1.215-0.391 1.885-0.064v0c0.755 0.368 1.151 0.964 1.186 1.787 0.033 0.83-0.187 1.729-0.658 2.697zM255.713 202.448c0.27-0.554 0.326-1.047 0.167-1.478-0.162-0.441-0.484-0.778-0.965-1.013v0c-0.518-0.252-1.003-0.293-1.455-0.121-0.453 0.171-0.807 0.519-1.062 1.042v0c-0.261 0.536-0.314 1.03-0.158 1.483 0.156 0.453 0.487 0.802 0.993 1.049v0c0.524 0.255 1.004 0.29 1.441 0.103 0.437-0.186 0.784-0.541 1.039-1.065zM261.177 205.291c0.849-1.742 0.792-2.847-0.17-3.315v0c-0.865-0.421-1.655 0.102-2.37 1.569v0c-0.199 0.408-0.368 0.778-0.506 1.11v0l-0.276 0.589c-0.214 0.438-0.403 0.772-0.567 1.001v0l0.899 0.404c0.496 0.219 0.921 0.313 1.276 0.282 0.345-0.028 0.653-0.172 0.922-0.432 0.264-0.263 0.528-0.666 0.792-1.208z" fill="#3d4335" data-fill-palette-color="secondary"></path><path d="M251.142 194.092l0.339-0.828 4.119 1.686c-0.28-0.444-0.433-0.891-0.462-1.341-0.034-0.453 0.05-0.927 0.253-1.423v0c0.303-0.74 0.725-1.218 1.268-1.435 0.546-0.208 1.177-0.166 1.892 0.126v0l4.767 1.951-0.338 0.828-4.617-1.89c-0.508-0.208-0.956-0.248-1.345-0.122-0.391 0.133-0.688 0.447-0.89 0.942v0c-0.18 0.439-0.225 0.881-0.137 1.327 0.085 0.437 0.286 0.919 0.605 1.445v0l4.871 1.993-0.338 0.828z" fill="#3d4335" data-fill-palette-color="secondary"></path><path d="M265.247 187.837c-0.229 0.673-0.577 1.117-1.043 1.331-0.473 0.211-1.094 0.186-1.863-0.076v0l-6.763-2.3 0.288-0.846 1.761 0.598 0.752-2.212 0.76 0.258-0.752 2.213 4.242 1.443c0.596 0.203 1.028 0.228 1.294 0.075 0.269-0.159 0.459-0.402 0.57-0.729v0c0.068-0.199 0.11-0.367 0.129-0.504 0.02-0.143 0.012-0.307-0.026-0.492v0l0.775-0.165c0.094 0.418 0.052 0.887-0.124 1.406z" fill="#3d4335" data-fill-palette-color="secondary"></path><path d="M264.327 183.175l-8.078-2.283 0.298-0.992 8.001 2.536zM266.592 183.473c-0.047 0.156-0.147 0.278-0.3 0.366-0.158 0.08-0.315 0.096-0.471 0.049v0c-0.175-0.053-0.304-0.155-0.386-0.306-0.08-0.158-0.096-0.315-0.049-0.471v0c0.053-0.175 0.155-0.304 0.306-0.386 0.152-0.082 0.315-0.096 0.491-0.044v0c0.156 0.047 0.278 0.147 0.366 0.301 0.082 0.152 0.096 0.315 0.043 0.491z" fill="#3d4335" data-fill-palette-color="secondary"></path></g></svg></g></svg></g></svg></g><g></g></svg></g><defs></defs></svg><rect width="279.72" height="279.72" fill="none" stroke="none" visibility="hidden"></rect></g></svg></g></svg>